<svg xmlns="http://www.w3.org/2000/svg" xmlns:svg="http://www.w3.org/2000/svg" id="svg3838" width="50" height="50" version="1.1" viewBox="0 0 1031.25 50" style="fill:#fff"><metadata id="metadata3842"/><path id="path3836" d="m 489.125,534.62498 -19,-5 -14,-12 -14,-11 -9,-19 c -8,-17 -9,-20 -11,-33 l -2,-18 c 0,-3 -1,-6 -3,-7 l -5,-11 c -2,-7 -2,-8 0,-17 1,-10 5,-16 7,-15 l 1,-1 5,-3 c 3,0 5,-2 6,-4 a 213,213 0 0 0 11,-52 c 0,-8 0,-10 4,-14 a 1704,1704 0 0 0 18,-73 c -2,0 -5,-7 -4,-9 l 2,-9 3,-12 3,-16 c 2,-16 4,-22 7,-23 1,0 2,-3 3,-10 l 3,-15 c 1,-6 2,-7 6,-8 3,-1 4,-2 4,-5 l 2,-8 c 28,-123.0000002 62,-256 87,-359 7,-32 7,-41 1,-57 -4,-9 -6,-11 -16,-21 a 1354,1354 0 0 0 -120,-80 l -5,2 c -2,1 -2,1 -4,-1 l -1,-2 -7,-2 c -7,-4 -7,-4 -11,-2 -3,2 -4,2 -6,1 l -26,-15 c -16,-9 -26,-16 -24,-19 l -1,-1 -28,-14.0005 a 542,542 0 0 0 -64,-32 l 11,-4 h 15 c 11,4 84,16 87,14 2,-2 4,-1 28,13 l 21,11 c 3,0 6,6.0005 7,10.0005 0,4 2,5 5,7 l 7,3 c 4,0 6,3 7,9 v 4 l 116,59 14,13 15,13 8,17 8,18 1,18 c 1,16 0,21 -3,37 a 640,640 0 0 1 -8,45 3136,3136 0 0 1 -11,72 l 2,8 c 1,3 2,5 5,6 5,2 13,9 14,14 4,16 -11,30 -19,18 -5,-7 -6,-15 -2,-22 2,-5 2,-5 0,-7 -5,-4 -6,-2 -9,15 l -4,26 c -2,7 -2,10 0,15 l 3,10 1,3 1,-2 c 0,-3 5,-5 7,-4 h 4 c 3,-1 4,0 8,3 l 5,6 h -1 l -4,5 c -4,10 -16,14.9999998 -22,10 -2,-2 -2,-2 -5,1 l -5,3 c -3,0 -2,3.9999998 1,5.9999998 3,1 4,1 7,-2 2,-3 5,-3.9999998 8,-3.9999998 7,0 9,0.9999998 9,5.9999998 0,3 -1,4.99999997 -5,9 -3,3 -6,6.0000002 -6,8.0000002 0,6 -10,20 -14,20 l -3,-1 c -3,-2 -7,3 -8,11 l -2,8 h 7 c 6,0 8,-1 12,-5 6,-6 14,-8 20,-6 9,4 7,15 -5,23 -4,2 -7,5 -7,7 l -3,3 -1,6 -2,8 c -2,3 -9,4 -12,2 -2,-1 -2,-1 -3,1 l -2,17 a 31221,31221 0 0 0 -57,299 l -6,-1 -4,-1 -3,18 c -4,23 -4,30 4,37 l 7,4 20,-82 c 20,-79 24,-95 43,-147 l 4,-10 -3,-24 -3,-24 10,-23 9,-22 20,-8 c 19,-7 22,-7 26,-5 a 521,521 0 0 0 36,12 c 7,3 10,6 30,25 l 22,21 15,28 16,28 3,19 6,31 2,12 -6,23 c -4,12 -6,23 -6,25 l -7,6 -18,11 -12,8 -11,-2 c -26,-5 -41,-9 -44,-13 -5,-4 -9,-3 -13,5 l -35,76 -32,69 -12,11 -20,16 c -7,4 -30,12 -36,12 z m 87,-525.0000002 c 3,-4 3,-6 -1,-6 -3,0 -4,1 -5,9.0000002 0,5 0,6 1,4 z" style="fill:#fff"/></svg>